<?xml version="1.0" encoding="utf-8"?>
<!-- Generator: Adobe Illustrator 21.1.0, SVG Export Plug-In . SVG Version: 6.00 Build 0)  -->
<!DOCTYPE svg PUBLIC "-//W3C//DTD SVG 1.1//EN" "http://www.w3.org/Graphics/SVG/1.1/DTD/svg11.dtd">
<svg version="1.1" id="Layer_1" xmlns="http://www.w3.org/2000/svg" xmlns:xlink="http://www.w3.org/1999/xlink" x="0px" y="0px"
	 viewBox="0 0 366.5 80.6" style="enable-background:new 0 0 366.5 80.6;" xml:space="preserve">
<style type="text/css">
	.st0{fill:#FBB040;}
	.st1{fill:#FFFFFF;}
</style>
<g>
	<path class="st0" d="M109.5,1.8h17.7v20.5h0.3c1.2-1.4,2.8-2.5,4.8-3.3c2-0.8,4.5-1.2,7.5-1.2c5.6,0,10.2,1.8,13.6,5.3
		c3.4,3.5,5.1,8.9,5.1,16c0,3.8-0.6,7.2-1.7,10.1c-1.1,2.9-2.8,5.4-4.8,7.4c-2.1,2-4.6,3.5-7.6,4.5c-3,1-6.4,1.5-10.1,1.5
		c-4.5,0-8.2-0.5-11.2-1.5c-3-1-5.3-2.1-7-3.1V11.2h-6.6V1.8z M136.8,27.3c-0.8,0-1.7,0.1-2.7,0.4c-1,0.3-1.9,0.7-2.8,1.2
		c-0.9,0.5-1.7,1.2-2.5,1.9c-0.8,0.8-1.3,1.6-1.7,2.6v17.8c0.9,0.5,2.2,0.9,3.8,1.4c1.6,0.5,3.3,0.7,5.1,0.7c1.5,0,2.9-0.3,4.2-0.8
		c1.3-0.5,2.5-1.4,3.5-2.5c1-1.1,1.8-2.6,2.4-4.3c0.6-1.7,0.9-3.8,0.9-6.2c0-4.1-0.9-7.1-2.6-9.2C142.8,28.3,140.2,27.3,136.8,27.3z
		"/>
	<path class="st0" d="M164.6,21.8c2.3-1,4.9-1.9,7.9-2.7c3-0.7,6.5-1.1,10.7-1.1c3,0,5.5,0.4,7.6,1.1c2.1,0.7,3.8,1.7,5,3
		c1.3,1.3,2.2,2.9,2.8,4.7c0.6,1.8,0.9,3.9,0.9,6.2c0,2.9-0.1,5.4-0.3,7.4c-0.2,2.1-0.3,3.9-0.3,5.5c0,1.2,0.1,2.5,0.2,4
		c0.1,0.8,0.2,1.6,0.3,2.3h5.6v9.4h-14.4l-1.1-5.8h-0.4c-1.1,1.8-2.8,3.3-4.8,4.6c-2.1,1.3-4.9,1.9-8.5,1.9c-4.3,0-7.6-1.1-10.1-3.4
		c-2.5-2.3-3.7-5.3-3.7-9.1c0-2.4,0.4-4.5,1.3-6.2c0.9-1.7,2.2-3.2,3.8-4.3c1.7-1.1,3.7-1.9,6-2.5s5-0.8,7.9-0.8
		c1,0,2.1,0.1,3.2,0.2c1.1,0.1,2.5,0.2,4.2,0.3c0.1-0.6,0.2-1.1,0.2-1.7v-1.6c0-2.2-0.6-3.7-1.9-4.7c-1.2-0.9-3.1-1.4-5.5-1.4
		c-2.9,0-5.5,0.4-7.8,1.1c-2.3,0.7-4.3,1.5-5.9,2.2L164.6,21.8z M179.1,53.2c2.7,0,4.7-0.5,6.1-1.5c1.4-1,2.3-2.1,3-3.2v-5.1
		c-0.6-0.1-1.4-0.2-2.5-0.4c-1.1-0.1-2.3-0.2-3.6-0.2c-1.1,0-2.1,0.1-3.2,0.3c-1.1,0.2-2,0.5-2.9,0.9c-0.8,0.4-1.5,1-2,1.7
		c-0.5,0.7-0.8,1.5-0.8,2.5c0,1.6,0.5,2.8,1.4,3.7C175.5,52.8,177,53.2,179.1,53.2z"/>
	<path class="st0" d="M202,1.8h17.7v20.5h0.3c1.2-1.4,2.8-2.5,4.8-3.3c2-0.8,4.5-1.2,7.5-1.2c5.6,0,10.2,1.8,13.6,5.3
		c3.4,3.5,5.1,8.9,5.1,16c0,3.8-0.6,7.2-1.7,10.1c-1.1,2.9-2.8,5.4-4.8,7.4c-2.1,2-4.6,3.5-7.6,4.5c-3,1-6.4,1.5-10.1,1.5
		c-4.4,0-8.2-0.5-11.2-1.5c-3-1-5.3-2.1-7-3.1V11.2H202V1.8z M229.3,27.3c-0.8,0-1.7,0.1-2.7,0.4c-1,0.3-1.9,0.7-2.8,1.2
		c-0.9,0.5-1.7,1.2-2.5,1.9c-0.8,0.8-1.3,1.6-1.7,2.6v17.8c0.9,0.5,2.2,0.9,3.8,1.4c1.6,0.5,3.3,0.7,5.1,0.7c1.5,0,2.9-0.3,4.2-0.8
		c1.3-0.5,2.5-1.4,3.5-2.5c1-1.1,1.8-2.6,2.4-4.3c0.6-1.7,0.9-3.8,0.9-6.2c0-4.1-0.9-7.1-2.6-9.2C235.2,28.3,232.6,27.3,229.3,27.3z
		"/>
	<path class="st0" d="M248.2,1.8h17.7v20.5h0.3c1.2-1.4,2.8-2.5,4.8-3.3c2-0.8,4.5-1.2,7.5-1.2c5.6,0,10.2,1.8,13.6,5.3
		s5.1,8.9,5.1,16c0,3.8-0.6,7.2-1.7,10.1c-1.1,2.9-2.8,5.4-4.8,7.4c-2.1,2-4.6,3.5-7.6,4.5c-3,1-6.4,1.5-10.1,1.5
		c-4.4,0-8.2-0.5-11.2-1.5c-3-1-5.3-2.1-7-3.1V11.2h-6.6V1.8z M275.5,27.3c-0.8,0-1.7,0.1-2.7,0.4c-1,0.3-1.9,0.7-2.8,1.2
		c-0.9,0.5-1.7,1.2-2.5,1.9c-0.8,0.8-1.3,1.6-1.7,2.6v17.8c0.9,0.5,2.2,0.9,3.8,1.4c1.6,0.5,3.3,0.7,5.1,0.7c1.5,0,2.9-0.3,4.2-0.8
		c1.3-0.5,2.5-1.4,3.5-2.5c1-1.1,1.8-2.6,2.4-4.3c0.6-1.7,0.9-3.8,0.9-6.2c0-4.1-0.9-7.1-2.6-9.2S278.8,27.3,275.5,27.3z"/>
	<path class="st0" d="M294.4,1.8h18.2v39.5c0,4.4,0.5,7.4,1.6,9.2c1.1,1.7,2.8,2.6,5.2,2.6c1.8,0,3.2-0.2,4.4-0.6
		c1.1-0.4,2.3-0.9,3.4-1.6l4.2,7.7c-1,0.6-1.9,1.2-2.9,1.8c-1,0.5-2,1-3.1,1.4c-1.1,0.4-2.3,0.7-3.6,0.9c-1.3,0.2-2.7,0.3-4.3,0.3
		c-5.4,0-9.4-1.4-12.1-4.1c-2.7-2.7-4-6.6-4-11.6V11.2h-7.1V1.8z"/>
	<path class="st0" d="M365.2,57.2c-0.7,0.7-1.7,1.4-2.9,2c-1.2,0.7-2.5,1.3-4.1,1.8c-1.6,0.6-3.3,1-5.2,1.4c-1.9,0.3-3.9,0.5-6,0.5
		c-3.7,0-6.9-0.5-9.8-1.5c-2.9-1-5.3-2.5-7.3-4.5c-2-2-3.5-4.3-4.6-7.1c-1.1-2.8-1.6-5.9-1.6-9.5c0-3.8,0.6-7.1,1.8-9.9
		c1.2-2.8,2.8-5.2,4.9-7.1c2.1-1.9,4.5-3.3,7.3-4.2c2.8-0.9,5.8-1.4,9.1-1.4c2.2,0,4.4,0.3,6.7,0.9c2.3,0.6,4.4,1.6,6.4,3
		c1.9,1.4,3.5,3.3,4.7,5.6c1.2,2.3,1.8,5.3,1.8,8.9c0,2.5-0.3,5.1-0.9,8h-30.8c0.1,1.8,0.4,3.4,1.2,4.6c0.7,1.3,1.7,2.3,2.8,3.1
		c1.2,0.8,2.5,1.4,4,1.8c1.5,0.4,3.1,0.6,4.8,0.6c3.4,0,6.2-0.4,8.4-1.2c2.2-0.8,4-1.8,5.3-2.9L365.2,57.2z M346.7,26.6
		c-1.5,0-2.9,0.2-4.2,0.6c-1.3,0.4-2.5,1-3.6,1.8c-1.1,0.8-1.9,1.8-2.6,2.9c-0.7,1.2-1.1,2.5-1.2,3.9h21.1c0-2.8-0.8-5.1-2.4-6.8
		S349.9,26.6,346.7,26.6z"/>
</g>
<path class="st1" d="M0,56.7c0,4.3,3.5,7.8,7.8,7.8h11.7v12.1c0,2.2,1.8,3.9,3.9,3.9c1.1,0,2.1-0.5,2.8-1.2l14.8-14.8h43
	c4.3,0,7.8-3.5,7.8-7.8V7.8C92,3.5,88.5,0,84.1,0H7.8C3.5,0,0,3.5,0,7.8L0,56.7L0,56.7z M23.5,34.2c0-2.7,2.2-4.9,4.9-4.9
	s4.9,2.2,4.9,4.9c0,2.7-2.2,4.9-4.9,4.9C25.7,39.1,23.5,36.9,23.5,34.2z M41.1,34.2c0-2.7,2.2-4.9,4.9-4.9c2.7,0,4.9,2.2,4.9,4.9
	c0,2.7-2.2,4.9-4.9,4.9C43.3,39.1,41.1,36.9,41.1,34.2z M58.7,34.2c0-2.7,2.2-4.9,4.9-4.9c2.7,0,4.9,2.2,4.9,4.9
	c0,2.7-2.2,4.9-4.9,4.9C60.9,39.1,58.7,36.9,58.7,34.2z"/>
</svg>
