<?xml version="1.0" encoding="utf-8"?>
<!-- Generator: Adobe Illustrator 21.1.0, SVG Export Plug-In . SVG Version: 6.00 Build 0)  -->
<!DOCTYPE svg PUBLIC "-//W3C//DTD SVG 1.1//EN" "http://www.w3.org/Graphics/SVG/1.1/DTD/svg11.dtd">
<svg version="1.1" id="Layer_1" xmlns="http://www.w3.org/2000/svg" xmlns:xlink="http://www.w3.org/1999/xlink" x="0px" y="0px"
	 viewBox="0 0 11.8 11.8" style="enable-background:new 0 0 11.8 11.8;" xml:space="preserve">
<style type="text/css">
	.st0{fill:#A7A9AC;}
</style>
<g>
	<g>
		<path class="st0" d="M3.9,7.2c0,0-0.1-0.1-0.1-0.1c-0.1,0-0.1,0-0.1,0.1l-2,2L0.7,8.4C0.6,8.3,0.5,8.2,0.4,8.2s-0.2,0-0.3,0.1
			C0.1,8.4,0,8.5,0,8.6v2.8c0,0.1,0,0.2,0.1,0.3c0.1,0.1,0.2,0.1,0.3,0.1h2.8c0.1,0,0.2,0,0.3-0.1c0.1-0.1,0.1-0.2,0.1-0.3
			s0-0.2-0.1-0.3l-0.9-0.9l2-2c0,0,0.1-0.1,0.1-0.1s0-0.1-0.1-0.1L3.9,7.2z"/>
		<path class="st0" d="M11.6,0.1C11.6,0,11.5,0,11.4,0H8.6C8.5,0,8.4,0,8.3,0.1S8.2,0.3,8.2,0.4s0,0.2,0.1,0.3l0.9,0.9l-2,2
			c0,0-0.1,0.1-0.1,0.1s0,0.1,0.1,0.1l0.7,0.7c0,0,0.1,0.1,0.1,0.1c0.1,0,0.1,0,0.1-0.1l2-2l0.9,0.9c0.1,0.1,0.2,0.1,0.3,0.1
			c0.1,0,0.2,0,0.3-0.1s0.1-0.2,0.1-0.3V0.4C11.8,0.3,11.7,0.2,11.6,0.1z"/>
	</g>
	<g>
		<path class="st0" d="M7.2,7.9c0,0-0.1,0.1-0.1,0.1c0,0.1,0,0.1,0.1,0.1l2,2l-0.9,0.9c-0.1,0.1-0.1,0.2-0.1,0.3
			c0,0.1,0,0.2,0.1,0.3c0.1,0.1,0.2,0.1,0.3,0.1h2.8c0.1,0,0.2,0,0.3-0.1c0.1-0.1,0.1-0.2,0.1-0.3V8.6c0-0.1,0-0.2-0.1-0.3
			c-0.1-0.1-0.2-0.1-0.3-0.1s-0.2,0-0.3,0.1l-0.9,0.9l-2-2c0,0-0.1-0.1-0.1-0.1s-0.1,0-0.1,0.1L7.2,7.9z"/>
		<path class="st0" d="M0.1,0.1C0,0.2,0,0.3,0,0.4v2.8c0,0.1,0,0.2,0.1,0.3c0.1,0.1,0.2,0.1,0.3,0.1s0.2,0,0.3-0.1l0.9-0.9l2,2
			c0,0,0.1,0.1,0.1,0.1s0.1,0,0.1-0.1l0.7-0.7c0,0,0.1-0.1,0.1-0.1s0-0.1-0.1-0.1l-2-2l0.9-0.9c0.1-0.1,0.1-0.2,0.1-0.3
			s0-0.2-0.1-0.3S3.3,0,3.1,0H0.4C0.3,0,0.2,0.1,0.1,0.1z"/>
	</g>
</g>
</svg>
