<?xml version="1.0" encoding="utf-8"?>
<!-- Generator: Adobe Illustrator 21.1.0, SVG Export Plug-In . SVG Version: 6.00 Build 0)  -->
<!DOCTYPE svg PUBLIC "-//W3C//DTD SVG 1.1//EN" "http://www.w3.org/Graphics/SVG/1.1/DTD/svg11.dtd">
<svg version="1.1" id="Layer_1" xmlns="http://www.w3.org/2000/svg" xmlns:xlink="http://www.w3.org/1999/xlink" x="0px" y="0px"
	 viewBox="0 0 39.4 48.1" style="enable-background:new 0 0 39.4 48.1;" xml:space="preserve">
<style type="text/css">
	.st0{fill:#FFFFFF;}
</style>
<g id="layer1" transform="translate(0,-540.36218)">
	<g id="g4305">
		<g id="g4345" transform="translate(28,-40.00001)">
			<g id="text2994">
				<g id="layer1-1-1" transform="matrix(0.8,0,0,0.8,120.63721,336.56725)">
					<g id="g3989" transform="translate(94.875498,-44.842982)">
						<g id="layer1-1-7" transform="translate(-266.66383,-76.760125)">
							<path id="path3833-1" class="st0" d="M7.8,437.3c-0.1,0-0.2,0-0.3,0h-19.4c-1.2,0-2.2,1-2.2,2.2v44.8c0,1.2,1,2.2,2.2,2.2
								h33.9c1.2,0,2.2-1,2.2-2.2V454c0.1-0.8-0.2-1.6-0.8-2.1L9.6,438.1C9.2,437.6,8.5,437.2,7.8,437.3z M-9.6,441.7H5.7v11.7
								c-0.1,0.7,0.1,1.4,0.6,1.9c0,0,0,0,0,0c0,0,0,0,0,0c0.5,0.5,1.2,0.7,1.9,0.6h11.7v26.3H-9.6V441.7z M10.1,444.8l6.8,6.8h-6.8
								V444.8z"/>
							<g id="layer1-5-1" transform="translate(-573.14286,170.28574)">
							</g>
						</g>
						<path id="path3833-4" class="st0" d="M-247.9,349.6c-0.1,0-0.2,0-0.3,0h-19.4c-0.6,0-1.1,0.2-1.5,0.6s-0.6,1-0.6,1.5v6h4.4
							V354h15.3v8.9l5.3,5.3h8.9v26.3h-3.8v4.4h6c0.6,0,1.1-0.2,1.5-0.6c0.4-0.4,0.6-1,0.6-1.5v-30.3c0.1-0.8-0.2-1.6-0.8-2.1
							l-13.9-13.9C-246.5,349.9-247.2,349.5-247.9,349.6L-247.9,349.6z M-245.7,357.1l6.8,6.8h-6.8V357.1z"/>
					</g>
					<g id="layer1-5-2" transform="translate(-573.14286,170.28574)">
					</g>
				</g>
			</g>
		</g>
	</g>
</g>
</svg>
