<?xml version="1.0" encoding="utf-8"?>
<!-- Generator: Adobe Illustrator 21.1.0, SVG Export Plug-In . SVG Version: 6.00 Build 0)  -->
<!DOCTYPE svg PUBLIC "-//W3C//DTD SVG 1.1//EN" "http://www.w3.org/Graphics/SVG/1.1/DTD/svg11.dtd">
<svg version="1.1" id="Layer_1" xmlns="http://www.w3.org/2000/svg" xmlns:xlink="http://www.w3.org/1999/xlink" x="0px" y="0px"
	 viewBox="0 0 11.8 11.8" style="enable-background:new 0 0 11.8 11.8;" xml:space="preserve">
<style type="text/css">
	.st0{fill:#A7A9AC;}
</style>
<g>
	<g>
		<path class="st0" d="M0.8,11.7c0,0,0.1,0.1,0.1,0.1c0.1,0,0.1,0,0.1-0.1l2-2L4,10.6c0.1,0.1,0.2,0.1,0.3,0.1c0.1,0,0.2,0,0.3-0.1
			c0.1-0.1,0.1-0.2,0.1-0.3V7.5c0-0.1,0-0.2-0.1-0.3C4.5,7.2,4.4,7.1,4.3,7.1H1.5c-0.1,0-0.2,0-0.3,0.1C1.2,7.3,1.1,7.4,1.1,7.5
			c0,0.1,0,0.2,0.1,0.3l0.9,0.9l-2,2c0,0-0.1,0.1-0.1,0.1s0,0.1,0.1,0.1L0.8,11.7z"/>
		<path class="st0" d="M7.2,4.5c0.1,0.1,0.2,0.1,0.3,0.1h2.8c0.1,0,0.2,0,0.3-0.1c0.1-0.1,0.1-0.2,0.1-0.3s0-0.2-0.1-0.3L9.7,3.1
			l2-2c0,0,0.1-0.1,0.1-0.1s0-0.1-0.1-0.1L11,0.1C11,0,10.9,0,10.9,0s-0.1,0-0.1,0.1l-2,2L7.8,1.2C7.7,1.1,7.6,1.1,7.5,1.1
			c-0.1,0-0.2,0-0.3,0.1C7.2,1.3,7.1,1.4,7.1,1.5v2.8C7.1,4.4,7.2,4.4,7.2,4.5z"/>
	</g>
	<g>
		<path class="st0" d="M11.7,11c0,0,0.1-0.1,0.1-0.1c0-0.1,0-0.1-0.1-0.1l-2-2l0.9-0.9c0.1-0.1,0.1-0.2,0.1-0.3c0-0.1,0-0.2-0.1-0.3
			c-0.1-0.1-0.2-0.1-0.3-0.1H7.5c-0.1,0-0.2,0-0.3,0.1C7.2,7.3,7.1,7.4,7.1,7.5v2.8c0,0.1,0,0.2,0.1,0.3c0.1,0.1,0.2,0.1,0.3,0.1
			c0.1,0,0.2,0,0.3-0.1l0.9-0.9l2,2c0,0,0.1,0.1,0.1,0.1s0.1,0,0.1-0.1L11.7,11z"/>
		<path class="st0" d="M4.5,4.6c0.1-0.1,0.1-0.2,0.1-0.3V1.5c0-0.1,0-0.2-0.1-0.3S4.4,1.1,4.2,1.1S4,1.2,4,1.2L3.1,2.1l-2-2
			C1,0.1,1,0,0.9,0s-0.1,0-0.1,0.1L0.1,0.8C0,0.8,0,0.9,0,0.9S0,1,0.1,1.1l2,2L1.2,4C1.1,4.1,1.1,4.2,1.1,4.3c0,0.1,0,0.2,0.1,0.3
			c0.1,0.1,0.2,0.1,0.3,0.1h2.8C4.4,4.7,4.4,4.6,4.5,4.6z"/>
	</g>
</g>
</svg>
