<?xml version="1.0" encoding="utf-8"?>
<!-- Generator: Adobe Illustrator 21.1.0, SVG Export Plug-In . SVG Version: 6.00 Build 0)  -->
<!DOCTYPE svg PUBLIC "-//W3C//DTD SVG 1.1//EN" "http://www.w3.org/Graphics/SVG/1.1/DTD/svg11.dtd">
<svg version="1.1" id="Layer_1" xmlns="http://www.w3.org/2000/svg" xmlns:xlink="http://www.w3.org/1999/xlink" x="0px" y="0px"
	 viewBox="0 0 17.5 17.5" style="enable-background:new 0 0 17.5 17.5;" xml:space="preserve">
<style type="text/css">
	.st0{fill:#1B75BC;}
</style>
<g id="Page-1">
	<g id="icon-111-search">
		<path id="search" class="st0" d="M11,12.6c-1.1,0.8-2.5,1.3-4,1.3c-3.8,0-7-3.1-7-7s3.1-7,7-7s7,3.1,7,7c0,1.5-0.5,2.9-1.3,4
			l4.6,4.6c0.4,0.4,0.4,1.2,0,1.6l0,0c-0.4,0.4-1.2,0.4-1.6,0L11,12.6L11,12.6z M7,12.3c2.9,0,5.3-2.4,5.3-5.3S9.9,1.6,7,1.6
			S1.6,4,1.6,7S4,12.3,7,12.3L7,12.3z"/>
	</g>
</g>
</svg>
