<?xml version="1.0" encoding="utf-8"?>
<!-- Generator: Adobe Illustrator 22.1.0, SVG Export Plug-In . SVG Version: 6.00 Build 0)  -->
<!DOCTYPE svg PUBLIC "-//W3C//DTD SVG 1.1//EN" "http://www.w3.org/Graphics/SVG/1.1/DTD/svg11.dtd">
<svg version="1.1" id="Layer_1" xmlns="http://www.w3.org/2000/svg" xmlns:xlink="http://www.w3.org/1999/xlink" x="0px" y="0px"
	 viewBox="0 0 1792 1792" style="enable-background:new 0 0 1792 1792;" xml:space="preserve">
<style type="text/css">
	.st0{fill:#FFFFFF;}
</style>
<path class="st0" d="M1184.7,896c0-79.7-28.2-147.7-84.6-204.1S975.7,607.3,896,607.3s-147.7,28.2-204.1,84.6S607.3,816.3,607.3,896
	s28.2,147.7,84.6,204.1s124.4,84.6,204.1,84.6s147.7-28.2,204.1-84.6S1184.7,975.7,1184.7,896z M1762.2,773.1v250.4
	c0,9-3,17.7-9,25.9c-6,8.3-13.5,13.2-22.6,14.7l-208.7,31.6c-14.3,40.6-28.9,74.8-44,102.6c26.3,37.6,66.5,89.5,120.7,155.6
	c7.5,9,11.3,18.4,11.3,28.2s-3.4,18.4-10.2,25.9c-20.3,27.8-57.5,68.4-111.7,121.8c-54.1,53.4-89.5,80.1-106,80.1
	c-9,0-18.8-3.4-29.3-10.2L1197.1,1478c-33.1,17.3-67.3,31.6-102.6,42.9c-12,102.3-22.9,172.2-32.7,209.8
	c-5.3,21.1-18.8,31.6-40.6,31.6H770.8c-10.5,0-19.7-3.2-27.6-9.6s-12.2-14.5-13-24.2l-31.6-207.5c-36.8-12-70.7-25.9-101.5-41.7
	l-159,120.7c-7.5,6.8-16.9,10.2-28.2,10.2c-10.5,0-19.9-4.1-28.2-12.4c-94.7-85.7-156.8-148.9-186.1-189.5
	c-5.3-7.5-7.9-16.2-7.9-25.9c0-9,3-17.7,9-25.9c11.3-15.8,30.5-40.8,57.5-75c27.1-34.2,47.4-60.7,60.9-79.5
	c-20.3-37.6-35.7-74.8-46.2-111.7l-206.4-30.5c-9.8-1.5-17.7-6.2-23.7-14.1c-6-7.9-9-16.7-9-26.5V768.6c0-9,3-17.7,9-25.9
	S52,729.5,60.3,728L270,696.4c10.5-34.6,25.2-69.2,44-103.8C284,549.8,243.7,497.9,193.3,437c-7.5-9-11.3-18-11.3-27.1
	c0-7.5,3.4-16.2,10.2-25.9c19.5-27.1,56.6-67.5,111.1-121.2s90-80.6,106.6-80.6c9.8,0,19.5,3.8,29.3,11.3L594.9,314
	c33.1-17.3,67.3-31.6,102.6-42.9c12-102.3,22.9-172.2,32.7-209.8c5.3-21.1,18.8-31.6,40.6-31.6h250.4c10.5,0,19.7,3.2,27.6,9.6
	s12.2,14.5,13,24.2l31.6,207.5c36.8,12,70.7,25.9,101.5,41.7L1355,192.2c6.8-6.8,15.8-10.2,27.1-10.2c9.8,0,19.2,3.8,28.2,11.3
	c97,89.5,159,153.4,186.1,191.7c5.3,6,7.9,14.3,7.9,24.8c0,9-3,17.7-9,25.9c-11.3,15.8-30.5,40.8-57.5,75s-47.4,60.7-60.9,79.5
	c19.5,37.6,35,74.4,46.2,110.5l206.4,31.6c9.8,1.5,17.7,6.2,23.7,14.1S1762.2,763.3,1762.2,773.1z"/>
</svg>
